<svg xmlns="http://www.w3.org/2000/svg" width="96" height="96" viewBox="0 0 96 96" fill="none">
  <defs>
    <linearGradient id="g" x1="12" y1="12" x2="84" y2="84" gradientUnits="userSpaceOnUse">
      <stop stop-color="#0EA5A4"/>
      <stop offset="1" stop-color="#1E6BFF"/>
    </linearGradient>
  </defs>
  <rect x="10" y="10" width="76" height="76" rx="22" fill="url(#g)" opacity=".14"/>
  <path d="M30 30v18c0 12 8 24 18 24s18-12 18-24V30" stroke="url(#g)" stroke-width="6" stroke-linecap="round"/>
  <path d="M34 30h28" stroke="url(#g)" stroke-width="6" stroke-linecap="round" opacity=".65"/>
  <path d="M38 72c0-6 4-10 10-10h0c6 0 10 4 10 10" stroke="url(#g)" stroke-width="6" stroke-linecap="round" opacity=".8"/>
  <path d="M44 44c-6 0-10 4-10 10s4 10 10 10" stroke="url(#g)" stroke-width="6" stroke-linecap="round"/>
  <circle cx="40" cy="64" r="4" fill="url(#g)"/>
  <path d="M52 44c6 0 10 4 10 10s-4 10-10 10" stroke="url(#g)" stroke-width="6" stroke-linecap="round"/>
  <circle cx="56" cy="64" r="4" fill="url(#g)"/>
</svg>
